<svg width="1547" height="588" viewBox="0 0 1547 588" fill="none" xmlns="http://www.w3.org/2000/svg">
<path fill-rule="evenodd" clip-rule="evenodd" d="M940.617 156.625C940.528 156.625 940.442 156.601 940.365 156.557C940.365 156.557 943.459 158.353 947.451 160.848C951.029 163.084 948.499 166.846 948.499 166.846L948.496 166.851C948.496 166.851 933.288 190.253 923.888 210.201C919.83 218.812 916.862 226.788 916.62 231.992C916.37 237.364 917.676 240.465 919.561 242.192C921.354 243.836 923.697 244.265 925.87 244.168C928.787 244.037 931.377 242.963 931.771 242.792C932.655 242.607 942.548 240.061 963.291 216.245C984.299 192.125 989.458 181.294 989.753 180.656C990.417 179.585 1010.98 146.399 1013.15 142.363C1015.24 138.465 1019.61 137.515 1019.61 137.515C1019.64 137.51 1019.66 137.502 1019.69 137.493C1019.69 137.493 1023.74 135.902 1026.77 135.712C1027.43 135.67 1028.04 135.694 1028.54 135.83C1028.94 135.939 1029.26 136.115 1029.43 136.423C1029.58 136.698 1029.61 137.062 1029.52 137.531C1029.04 139.942 1028.71 141.196 1028.49 141.848C1028.37 142.183 1028.27 142.368 1028.27 142.368C1028.27 142.368 1028.42 142.262 1028.44 142.254C1028.49 142.236 1028.53 142.232 1028.54 142.23C1029.21 142.146 1028.61 143.226 1028.61 143.226C1028.43 143.226 1028.27 143.138 1028.18 142.992C1028.09 142.847 1028.08 142.664 1028.16 142.509L1015.06 169.706C1014.95 169.931 1015.02 170.202 1015.23 170.34C1015.44 170.478 1015.72 170.441 1015.88 170.253C1015.88 170.253 1025.36 159.481 1044.22 144.518C1062.91 129.683 1077.93 131.922 1077.93 131.922L1077.98 131.927C1077.98 131.927 1088.5 132.429 1091.57 141.144C1093.65 147.073 1092.28 156.696 1082.18 172.375C1056.8 211.756 1052.61 229.726 1052.52 230.123C1052.49 230.221 1051.92 232.455 1052.11 235.052C1052.24 236.861 1052.74 238.839 1054 240.419C1055.37 242.115 1057.62 243.374 1061.29 243.437C1064.85 243.499 1069.19 241.468 1073.5 238.559C1083.38 231.893 1093.17 220.669 1093.17 220.669L1093.19 220.646C1093.19 220.646 1111.1 197.542 1118 188.14L1118.02 188.103C1118.7 186.979 1119.33 186.112 1119.89 185.468C1120.5 184.773 1121.02 184.348 1121.45 184.164C1121.69 184.065 1121.87 184.027 1121.99 184.15C1122.19 184.36 1122.21 184.771 1122.15 185.303C1122.02 186.333 1121.46 187.737 1120.39 189.256L1120.37 189.281C1120.37 189.281 1112.99 201.243 1104.82 210.613C1096.74 219.87 1083.33 233.786 1082.95 234.182C1082.73 234.399 1074.8 242.073 1064.66 246.239C1057.87 249.026 1050.09 250.252 1042.98 246.513C1035.94 242.811 1034.9 235.519 1036.12 228.127C1037.95 217.068 1044.86 205.745 1045.19 205.212C1045.73 204.432 1070.71 168.679 1074.78 149.833C1075.7 145.58 1075.54 142.158 1073.93 140.106C1072.3 138.033 1069.18 137.252 1064.03 138.514C1050.95 141.722 1038.79 150.805 1028.91 160.564C1014.15 175.155 1004.51 191.236 1004.51 191.236L1004.5 191.247C1004.5 191.247 978.424 237.31 975.457 241.838C974.049 243.987 973.378 245.201 972.137 245.757C970.877 246.321 969.071 246.209 965.46 245.833C962.683 245.544 961.274 244.65 960.608 243.63C959.729 242.284 960.181 240.784 960.246 240.587L974.614 208.257C974.718 208.023 974.629 207.748 974.407 207.621C974.185 207.493 973.902 207.553 973.752 207.761C973.752 207.761 962.429 223.4 947.686 235.542C937.929 243.578 926.678 250.105 916.228 249.425C911.106 249.091 907.583 247.411 905.235 244.909C901.695 241.134 900.829 235.529 901.092 230.009C901.537 220.659 905.254 211.523 905.254 211.523C905.347 211.294 905.259 211.031 905.046 210.905C904.834 210.779 904.561 210.827 904.404 211.018C881.749 238.638 865.659 249.649 846.573 247.632C839.131 246.845 835.629 241.683 834.083 235.796C831.714 226.776 833.887 216.044 833.887 216.044C833.931 215.824 833.823 215.6 833.622 215.499C833.421 215.397 833.177 215.443 833.026 215.61C808.147 243.132 791.524 248.748 791.524 248.748L791.49 248.761C791.49 248.761 787.548 250.404 782.61 250.519C777.716 250.633 771.832 249.239 767.887 243.169C764.703 238.271 764.733 231.605 765.879 225.375C767.621 215.908 771.974 207.425 771.974 207.425C772.091 207.197 772.017 206.917 771.802 206.777C771.587 206.638 771.302 206.683 771.141 206.882C750.216 232.758 737.372 242.615 730.437 246.351C725.993 248.746 724.091 248.569 724.091 248.569C724.007 248.56 723.922 248.572 723.844 248.604C723.844 248.604 714.28 252.522 705.163 243.861C703.371 242.158 702.491 239.725 702.204 236.934C701.909 234.061 702.245 230.811 702.909 227.552C704.921 217.682 709.952 207.734 709.952 207.734C710.067 207.507 709.993 207.23 709.78 207.091C709.567 206.951 709.284 206.994 709.121 207.189C709.121 207.189 686.863 233.976 668.958 243.784C651.343 253.435 641.237 245.242 641.237 245.242C641.212 245.222 641.185 245.204 641.157 245.188C641.157 245.188 630.749 239.505 636.561 217.636C642.486 195.337 677.43 145.6 681.484 139.675C683.433 136.827 684.51 135.389 685.869 134.815C687.222 134.243 688.825 134.546 691.769 135.042C696.928 135.913 698.576 139.64 697.331 142.472C693.242 151.772 677.932 171.313 665.903 190.953C657.828 204.14 651.238 217.377 650.421 227.623C649.789 235.55 651.77 239.554 654.729 241.314C657.5 242.963 661.203 242.663 664.65 241.665C669.685 240.206 674.158 237.299 674.158 237.299C674.173 237.289 674.189 237.278 674.203 237.266C674.203 237.266 682.185 230.694 695.017 217.861C707.862 205.017 719.923 186.535 719.923 186.535L719.932 186.52C719.932 186.52 745.269 144.598 747.459 139.593C748.675 136.814 750.737 136.193 753.213 136.124C754.991 136.074 756.974 136.299 759.031 136.299C760.874 136.299 761.882 136.793 762.412 137.437C763.03 138.188 762.965 139.097 762.929 139.367C761.752 141.26 741.133 174.467 727.645 201.07C721.666 212.864 717.093 223.37 716.198 229.307C715.275 235.424 716.119 239.202 717.958 241.275C719.725 243.267 722.43 243.764 725.553 243.196C730.012 242.386 735.349 239.397 739.812 235.866C750.302 227.568 773.498 199.39 773.498 199.39C773.517 199.367 773.534 199.342 773.548 199.316L829.241 99.6609C829.34 99.4839 829.323 99.266 829.198 99.108C829.073 98.949 828.865 98.8809 828.67 98.9349C828.67 98.9349 784.388 111.274 602.944 61.746C421.183 12.131 336.335 14.9179 304.289 18.0449C272.131 21.1819 243.588 42.082 243.588 42.082C243.374 42.238 243.32 42.5339 243.463 42.7559C243.463 42.7559 254.814 60.3169 247.623 79.5209C244.052 89.0549 239.425 93.199 235.664 94.939C232.01 96.629 229.227 96.022 229.227 96.022C229.202 96.017 229.177 96.0129 229.151 96.0109C229.151 96.0109 220.274 95.3069 220.274 78.1129C220.274 71.0999 223.145 64.2119 226.578 58.4659C231.756 49.8019 238.226 43.7289 238.226 43.7289C238.419 43.5489 238.438 43.2489 238.269 43.0449C230.911 34.1839 217.045 34.466 216.236 34.491C215.435 34.406 200.993 33.0709 184.693 44.0979C177.947 48.662 174.402 55.7979 172.593 62.7269C169.897 73.0509 171.051 82.895 171.051 82.895L171.054 82.918C171.054 82.918 174.48 103.996 188.94 127.769C203.303 151.382 211.974 172.457 214.751 187.893C217.523 203.3 226.495 238.342 183.134 281.205C159.448 304.619 121.83 316.61 87.3713 315.437C64.4303 314.655 42.8853 308.039 27.8003 295.04C-5.64866 266.216 0.432364 226.694 0.432364 226.694L0.437369 226.646C0.437369 226.646 2.63636 188.088 41.4484 165.044C79.8344 142.252 116.543 161.413 117.334 161.831C117.983 162.211 158.159 185.949 146.971 227.258C135.703 268.864 100.327 267.17 97.4443 267.259C95.4273 267.321 89.0753 266.686 84.5533 265.707C82.6763 265.3 81.1204 264.847 80.3644 264.343C79.9544 264.07 79.7144 263.801 79.6144 263.526C79.4704 263.129 79.6504 262.753 79.8794 262.437C80.1704 262.036 80.5664 261.721 80.7934 261.558C103.029 268.382 119.35 259.547 119.921 259.232C120.673 258.871 147.912 245.538 145.188 210.122C142.47 174.788 110.671 162.029 109.738 161.662C109.039 161.293 94.8764 154.088 66.8904 158.306C38.3684 162.603 17.4103 190.578 17.1583 190.916C16.8673 191.296 -5.77464 221.032 5.36236 256.399C16.5384 291.888 49.2313 304.883 49.3993 304.95C49.9843 305.199 88.9614 321.685 131.418 302.794C173.493 284.072 184.994 259.061 185.367 258.228C185.992 257.123 208.771 216.137 183.021 165.603C157.11 114.756 155.729 105.608 155.729 105.608C155.724 105.575 155.716 105.543 155.705 105.512C155.705 105.512 139.245 59.8409 179.077 38.6259C215.652 19.1449 241.241 39.4789 241.241 39.4789C241.436 39.6349 241.717 39.622 241.898 39.449C262.916 19.288 299.341 11.5109 335.473 9.39794C389.8 6.21994 443.489 15.8899 443.489 15.8899L443.513 15.8929C443.513 15.8929 506.65 24.1309 630.181 60.4269C753.862 96.7679 831.719 93.1769 831.719 93.1769C831.885 93.1699 832.037 93.0799 832.123 92.9379C846.625 69.0789 865.865 43.5269 886.169 25.3889C899.654 13.3429 913.602 4.56696 926.943 1.77196C945.302 -2.07304 956.302 0.957961 962.71 4.98296C969.015 8.94296 970.818 13.8359 970.818 13.8359L970.83 13.8649C970.83 13.8649 974.983 23.3659 969.993 36.5099C966.637 45.3509 959.158 55.814 943.592 66.171C904.472 92.199 846.18 97.4919 846.18 97.4919C846.013 97.5069 845.865 97.6039 845.786 97.7509L793.448 194.302L793.445 194.309C793.445 194.309 781.067 218.094 780.367 232.524C780.18 236.375 780.834 239.574 782.677 241.556C783.935 242.911 785.746 243.724 788.252 243.784C794.203 243.927 800.914 240.578 807.376 235.781C822.273 224.724 835.899 206.028 835.899 206.028C835.927 205.99 835.949 205.948 835.965 205.904C852.194 161.12 893.046 140.723 893.046 140.723L893.07 140.71C893.07 140.71 907.856 132.272 923.338 131.677C938.619 131.089 945.665 145.891 945.665 145.891C945.733 146.035 945.867 146.138 946.025 146.167C946.182 146.196 946.344 146.148 946.46 146.038C946.46 146.038 960.626 132.557 968.848 130.259C971.161 129.612 972.897 129.543 973.993 129.866C974.62 130.051 975.014 130.348 975.072 130.778C975.135 131.255 974.822 131.802 974.208 132.389C973.795 132.783 966.601 137.499 960.281 142.91C956.008 146.568 952.145 150.554 950.931 153.753C950.485 154.443 950.025 154.781 949.542 154.834C949.051 154.888 948.568 154.655 948.114 154.317C947.056 153.526 946.179 152.133 945.825 151.412C944.087 147.873 941.635 143.868 939.158 140.917C937.458 138.892 935.733 137.365 934.217 136.771C923.48 132.566 913.578 137.341 913.402 137.426C912.869 137.665 882.885 151.22 861.886 190.132C840.736 229.325 855.345 239.964 855.636 240.17C855.919 240.374 869.039 249.571 895.412 216.679C921.736 183.85 931.744 167.484 935.648 160.878C937.492 157.756 938.728 156.656 939.543 156.372C939.968 156.224 940.221 156.43 940.221 156.43L940.212 156.418L940.617 156.625ZM240.245 46.4979C240.1 46.4199 239.925 46.419 239.778 46.496C237.11 47.889 231.583 53.0639 225.821 63.9719C220.554 73.9419 222.373 84.5889 222.373 84.5889L222.377 84.608C222.377 84.608 223.017 87.6289 224.89 90.1529C226.175 91.8839 228.031 93.3749 230.623 93.5799C233.191 93.7829 235.529 92.5089 237.4 90.8809C240.054 88.5699 241.757 85.5699 241.842 85.4169C242.03 85.1009 247.393 75.9559 246.198 62.6539C244.965 48.9269 240.245 46.4979 240.245 46.4979ZM850.253 91.6329C850.2 91.7269 850.179 91.8339 850.193 91.9409C850.213 92.0979 850.305 92.236 850.443 92.314C850.537 92.367 850.644 92.3879 850.751 92.3749C850.751 92.3749 883.012 88.328 901.388 82.621L901.406 82.6149C941.491 68.5189 961.321 50.303 967.461 34.931C971.625 24.506 969.552 15.35 963.264 9.52196C957.011 3.72696 948.161 1.95392 938.655 3.16192C924.531 4.95692 908.955 13.333 898.453 24.66C877.295 43.701 850.253 91.6329 850.253 91.6329Z" fill="#441013"/>
<path fill-rule="evenodd" clip-rule="evenodd" d="M1540.42 390.472C1540.61 390.498 1542.65 390.796 1544.31 391.897C1545.41 392.632 1546.34 393.736 1546.34 395.395C1546.34 396.016 1546.19 396.493 1545.92 396.853C1545.51 397.403 1544.84 397.672 1544.11 397.8C1542.08 398.153 1539.55 397.409 1539.55 397.409L1539.54 397.406C1539.54 397.406 1477.56 380.719 1436.45 373.728C1351.67 359.311 1305.94 379.05 1305.94 379.05C1305.85 379.087 1305.78 379.152 1305.74 379.234C1285.27 416.896 1249.58 456.714 1222.64 470.074C1211.27 475.714 1201.48 476.65 1195.14 470.503C1187.08 462.693 1188.25 453.017 1192.51 444.221C1198.97 430.858 1212.57 419.495 1212.57 419.495C1212.68 419.404 1212.73 419.263 1212.71 419.121C1212.7 418.98 1212.61 418.858 1212.48 418.798C1179.03 403.245 1155.81 369.156 1155.81 369.156C1155.75 369.07 1155.66 369.009 1155.56 368.985C1036.41 340.962 912.985 398.713 912.985 398.713C912.792 398.804 912.698 399.025 912.768 399.227C912.837 399.428 913.048 399.545 913.256 399.496C920.406 397.836 948.209 398.444 970.964 406.63C986.051 412.058 998.936 420.807 1001.98 434.522C1009.62 468.894 978.119 493.203 978.119 493.203L978.088 493.23C978.088 493.23 929.632 538.807 838.786 542.859C747.862 546.915 699.71 530.616 699.71 530.616L699.668 530.604C699.668 530.604 650.418 519.475 596.711 502.793C527.502 481.296 466.386 479.869 466.386 479.869C466.215 479.865 466.058 479.966 465.992 480.124C456.503 502.712 437.047 540.636 411.255 564.932C394.135 581.059 374.224 591.185 352.574 586.713C339.785 584.071 332.143 574.14 329.883 561.67C326.471 542.843 335.292 518.246 357.205 503.924C406.869 471.464 452.251 473.992 452.251 473.992C452.414 474.001 452.567 473.914 452.643 473.769C452.643 473.769 470.172 440.209 493.899 380.998C517.55 321.976 543.295 305.455 543.295 305.455C543.451 305.356 543.522 305.165 543.47 304.988C543.419 304.81 543.256 304.688 543.071 304.688L482.792 304.527C482.629 304.527 482.48 304.622 482.412 304.77C464.065 344.799 420.158 383.398 420.158 383.398C420.074 383.472 420.023 383.577 420.017 383.69C420.012 383.802 420.051 383.911 420.127 383.994C422.797 386.886 427.152 389.025 432.107 390.429C439.475 392.517 448.169 392.992 454.521 392C458.08 391.444 459.86 391.458 460.672 391.746C460.851 391.809 460.965 391.865 461.002 391.96C461.019 392.005 461.006 392.053 460.991 392.102C460.957 392.205 460.894 392.307 460.823 392.403C460.637 392.657 460.389 392.872 460.279 392.961C435.467 400.506 415.928 386.136 415.928 386.136C415.772 386.021 415.556 386.029 415.409 386.156C415.409 386.156 402.62 397.184 378.791 396.767C354.97 396.351 348.726 385.993 341.503 377.451C339.511 375.094 338.415 371.698 337.936 367.999C337.208 362.379 337.913 356.058 339.171 351.529C339.702 349.615 340.331 348.023 340.995 346.951C341.393 346.31 341.787 345.861 342.192 345.684C342.646 345.486 342.954 345.416 343.163 345.523C343.274 345.581 343.327 345.7 343.363 345.843C343.423 346.076 343.424 346.366 343.394 346.688C343.219 348.517 341.985 351.243 341.985 351.243C341.977 351.262 341.97 351.281 341.964 351.301C337.182 368.382 344.049 377.216 344.258 377.48C344.493 377.794 355.874 392.855 376.396 392.171C397.085 391.482 408.977 380.09 408.977 380.09C409.062 380.009 409.109 379.895 409.105 379.778C409.102 379.66 409.049 379.549 408.96 379.473C408.96 379.473 381.734 356.13 403.385 326.36C425.16 296.42 471.27 294.422 471.27 294.422C471.423 294.415 471.56 294.325 471.627 294.186L515.216 203.761C515.309 203.567 515.239 203.334 515.055 203.223C514.87 203.112 514.631 203.16 514.504 203.334C514.504 203.334 493.768 231.676 469.843 245.784C456.693 253.539 446.284 252.891 440.632 246.489C437.242 242.65 435.586 236.767 436.059 229.466C436.777 218.376 442.406 204.047 454.412 188.56C474.991 162.015 476.364 153.777 476.448 153.062L476.45 153.05C476.532 152.721 477.087 150.387 476.905 147.852C476.771 145.979 476.233 144.006 474.858 142.611C473.706 141.441 471.966 140.661 469.357 140.707C466.856 140.752 463.527 141.563 459.115 143.543C437.328 153.322 417.424 178.02 417.424 178.02L417.418 178.027C417.418 178.027 401.328 198.91 389.645 220.879C382.61 234.107 381.549 241.72 380.874 245.371C380.745 246.071 380.632 246.62 380.49 247.029C380.383 247.336 380.277 247.553 380.096 247.66C379.994 247.721 379.87 247.737 379.721 247.728C379.506 247.716 379.251 247.653 378.945 247.548C375.041 246.221 361.873 246.714 358.906 246.844C360.03 243.387 366.909 223.984 389.388 191.183C403.152 171.1 407.491 158.362 408.582 150.962C409.326 145.913 408.566 143.29 408.21 142.48C408.138 142.316 408.075 142.211 408.036 142.159L407.982 142.101C407.578 141.414 404.763 137.229 396.848 138.66C391.305 139.663 383.172 143.471 371.489 153.434C342.596 178.076 324.437 213.159 324.24 213.541C323.938 214.058 310.325 237.421 307.19 242.394C304.184 247.161 300.908 246.906 300.908 246.906L300.865 246.904L289.521 247.007L306.49 214.035C306.584 213.854 306.532 213.631 306.368 213.51C306.204 213.388 305.977 213.403 305.83 213.545L281.563 237.047C281.147 237.355 274.709 242.105 267.507 245.93C262.59 248.541 257.319 250.733 253.389 250.733C247.54 250.733 242.026 250.351 238.508 246.633C236.167 244.159 234.732 240.215 234.637 233.968C234.394 218.089 250.016 194.822 250.016 194.822L250.028 194.804C250.028 194.804 267.284 165.879 274.186 151.675C275.952 148.042 277.03 145.34 277.03 144.287C277.03 141.512 275.217 140.023 273.386 139.241C272.138 138.707 270.889 138.508 270.264 138.438C270.315 138.28 270.425 138.124 270.572 137.967C271.061 137.448 271.95 136.968 273.088 136.559C275.868 135.559 280.102 135.025 283.933 135.646C286.445 136.053 288.785 136.955 290.403 138.574C291.991 140.164 293.783 144.112 293.114 147.346C291.199 156.592 272.905 183.174 271.919 184.601C271.781 184.751 271.333 185.355 270.669 186.345C266.537 192.507 253.053 214.184 249.633 229.008C248.939 232.018 248.658 234.75 248.939 237.022C249.231 239.378 250.126 241.25 251.757 242.464C253.884 244.048 257.315 244.52 262.436 243.353C272.913 240.965 284.758 231.215 296.33 218.503C323.185 189.002 348.644 143.576 352.352 138.352C353.84 136.255 356.051 135.59 358.017 136.102C359.997 136.617 361.716 138.316 362.211 140.897C362.397 141.867 362.212 143.064 361.839 144.359C361.253 146.39 360.196 148.648 359.231 150.674C354.111 161.425 351.123 166.716 351.123 166.716C351.021 166.897 351.067 167.125 351.232 167.251C351.397 167.378 351.629 167.364 351.777 167.218C368.824 150.513 382.223 140.449 393.091 135.484C403.835 130.576 412.072 130.675 418.898 134.298C424.291 137.161 425.083 143.884 424.18 150.891C422.797 161.624 417.349 173.066 417.349 173.066C417.261 173.251 417.321 173.473 417.49 173.589C417.658 173.705 417.887 173.681 418.028 173.532C441.234 149.1 458.354 137.101 470.666 133.486C478.725 131.12 484.685 132.375 488.9 136.122C493.092 139.848 493.918 144.723 493.415 149.226C492.65 156.073 488.825 162.082 488.825 162.082L488.824 162.085L468.654 194.391C468.527 194.591 457.959 211.276 453.408 225.155C451.412 231.244 450.597 236.805 452.219 240.259C454.441 244.987 458.598 245.619 462.802 244.639C468.8 243.241 474.873 238.517 475.071 238.362C475.616 237.966 510.038 212.8 534.847 163.861C547.302 139.293 559.088 121.156 570.923 108.852C582.698 96.6098 594.512 90.1548 607.087 88.9098C607.931 88.8268 608.665 88.7668 609.3 88.7298C609.804 88.6998 610.245 88.6828 610.627 88.6798C611.358 88.6718 611.867 88.7078 612.193 88.7838L612.232 88.7948C612.115 88.8928 611.942 89.0288 611.768 89.1298C610.63 89.7908 608.477 90.5818 606.742 91.1218L606.732 91.1248C598.476 93.9198 590.02 102.047 582.246 112.08C564.214 135.352 549.8 168.845 549.8 168.845C549.722 169.026 549.781 169.236 549.942 169.35C550.102 169.464 550.32 169.45 550.465 169.316C571.259 150.142 587.188 139.607 599.374 135.517C611.388 131.484 619.711 133.758 625.424 140.227C630.004 145.413 631.225 152.625 631.063 159.406C630.823 169.475 627.52 178.614 627.4 178.942C627.114 179.634 606.889 228.268 570.029 242.809C533.042 257.4 515.393 243.606 515.393 243.606C515.295 243.529 515.168 243.5 515.047 243.526C514.925 243.553 514.822 243.632 514.765 243.742L487.957 295.697C487.891 295.826 487.896 295.981 487.972 296.105C488.047 296.229 488.182 296.305 488.328 296.305H545.037C545.254 296.309 551.892 296.413 559.136 294.049C561.245 293.36 562.694 293.155 563.658 293.254C564.382 293.329 564.789 293.566 564.943 293.921C565.178 294.463 564.847 295.163 564.418 295.595C560.941 299.097 555.501 303.102 550.773 308.015C542.311 316.809 529.957 328.113 512.548 371.137C485.717 437.446 468.839 472.973 468.839 472.973C468.776 473.105 468.788 473.261 468.869 473.383C468.951 473.505 469.091 473.575 469.237 473.568C469.237 473.568 534.323 470.172 654.23 507.182L654.235 507.184C808.291 552.421 913.925 523.133 913.925 523.133L913.944 523.127C913.944 523.127 947.064 512.228 972.282 492.825C989.18 479.823 1002.51 463 1000.13 443.113C997.741 423.182 983.356 412.916 966.769 407.855C942.004 400.299 912.352 404.378 910.871 404.934C901.294 408.525 896.56 410.698 893.258 411.9C890.02 413.079 888.186 413.304 884.412 413.018C880.381 412.713 878.287 414.55 876.802 416.647C875.864 417.97 875.184 419.403 874.385 420.412C867.433 429.203 855.877 439.999 844.42 446.375C836.857 450.584 829.345 452.878 823.25 451.314C817.254 449.775 815.125 444.258 814.673 438.228C813.979 428.976 817.254 418.474 817.254 418.474C817.315 418.278 817.224 418.067 817.04 417.976C816.856 417.886 816.633 417.943 816.515 418.112C797.671 445.032 776.708 451.323 776.27 451.452C775.971 451.528 763.509 454.66 756.18 446.753C752.989 443.31 750.788 437.78 750.95 429.025C751.167 417.224 756.267 404.274 764.333 391.977C776.463 373.485 795.305 356.473 814.442 347.068C830.279 339.285 840.595 339.859 846.957 342.414C853.223 344.93 855.599 349.352 855.599 349.352C855.66 349.466 855.771 349.545 855.899 349.567C856.027 349.588 856.157 349.548 856.252 349.459C869.335 337.187 877.692 339.209 879.743 339.998C877.167 342.752 862.806 358.063 858.711 361.414C857.863 362.108 857.198 362.5 856.671 362.673C856.259 362.808 855.957 362.802 855.737 362.679C855.475 362.532 855.347 362.243 855.266 361.962C855.121 361.455 855.152 360.941 855.152 360.941V360.931L855.426 353.273C855.429 353.186 855.405 353.1 855.357 353.027C850.256 345.342 842.472 344.381 835.957 345.359C829.8 346.283 824.793 348.941 824.345 349.183C823.348 349.512 803.566 356.405 780.677 392.143C757.709 428.007 770.295 440.271 771.016 440.928C771.548 441.598 780.304 451.785 802.57 428.622C824.671 405.63 832.044 389.278 832.404 388.463L845.894 368.025C846.183 367.77 848.784 365.684 854.021 367.998C856.248 368.982 857.369 370.138 857.897 371.189C858.546 372.477 858.277 373.572 858.197 373.833C856.86 375.412 830.353 407.031 829.158 435.016C828.961 439.616 830.001 442.432 831.814 443.909C833.644 445.401 836.301 445.567 839.425 444.748C845.412 443.179 853.181 437.999 859.902 432.418C867.078 426.459 873.055 420.041 874.438 417.113C874.68 416.599 874.787 416.172 874.774 415.856C874.761 415.544 874.643 415.309 874.445 415.144C873.481 414.342 873.21 413.6 873.271 412.978C873.35 412.154 873.97 411.578 874.089 411.474C1000.69 330.384 1148.66 358.949 1148.66 358.949C1148.82 358.981 1148.99 358.912 1149.08 358.774C1149.18 358.636 1149.18 358.455 1149.09 358.315C1132.68 332.783 1122.01 292.722 1121.9 292.315C1121.82 291.974 1115.32 265.566 1119.94 243.367C1123.02 228.588 1131.03 215.672 1149.28 213.729C1167.6 211.778 1182.86 225.931 1194.62 243.556C1212.37 270.149 1222.12 304.715 1222.12 304.715C1222.18 304.901 1222.35 305.026 1222.54 305.018C1222.73 305.01 1222.9 304.87 1222.93 304.68C1245.29 187.624 1309.49 187.286 1309.49 187.286L1309.52 187.284C1309.52 187.284 1321.71 186.241 1331.79 197.486C1338.57 205.048 1344.37 218.134 1344.97 240.725C1346.46 297.477 1311.89 368.521 1311.89 368.521C1311.82 368.668 1311.84 368.845 1311.95 368.971C1312.05 369.097 1312.22 369.149 1312.38 369.104C1362.63 354.848 1431.49 365.02 1480.48 375.438C1509.54 381.616 1531.76 387.639 1538.41 389.706C1539.17 389.943 1539.79 390.166 1540.1 390.282C1540.17 390.382 1540.27 390.454 1540.4 390.47L1540.42 390.472ZM1161.54 362.898C1227.41 382.624 1222.96 411.621 1222.96 411.621C1222.93 411.787 1223.01 411.952 1223.15 412.04C1223.29 412.128 1223.47 412.122 1223.61 412.025C1264.3 383.128 1299.53 373.514 1299.53 373.514C1299.64 373.483 1299.73 373.407 1299.79 373.304C1324.39 326.026 1336.15 285.822 1338.5 255.619C1340.08 235.407 1337.43 219.657 1331.62 209.235C1327.71 202.217 1322.36 197.599 1315.89 195.626C1306.23 192.681 1294.05 195.634 1280.37 205.436C1257.74 221.662 1244.13 247.796 1235.96 273.325C1224.23 310.005 1223.71 345.417 1223.69 348.236C1222.54 349.293 1221.59 349.527 1220.84 349.379C1219.91 349.196 1219.32 348.459 1219.14 348.205C1216.68 253.359 1165.62 224.58 1165.21 224.352C1164.98 224.217 1153.22 217.534 1142.53 222.444C1135.36 225.733 1128.62 234.229 1126.22 253.508C1120.28 301.274 1161.31 362.731 1161.31 362.731C1161.37 362.811 1161.45 362.87 1161.54 362.898ZM464.608 306.364C464.83 306.325 464.982 306.115 464.948 305.891C464.914 305.664 464.701 305.507 464.474 305.541C464.474 305.541 440.861 309.1 422.645 319.769C413.474 325.14 405.678 332.316 402.875 341.715C400.073 351.113 402.242 362.76 413.108 377.081C413.245 377.262 413.504 377.299 413.687 377.164C413.687 377.164 438.829 358.636 464.608 306.364ZM448.913 479.393C448.913 479.393 377.804 477.546 342.054 523.439C327.494 542.129 330.677 566.516 344.16 577.954C352.271 584.836 364.112 587.069 378.091 580.563C398.833 570.909 424.366 541.888 449.288 479.965C449.307 479.919 449.317 479.87 449.318 479.821C449.323 479.647 449.218 479.488 449.057 479.423C449.011 479.405 448.962 479.394 448.913 479.393ZM516.885 238.634C516.821 238.825 516.902 239.035 517.077 239.133C536.949 250.183 554.92 243.263 567.92 233.561C580.582 224.112 588.511 212.031 588.856 211.5C589.518 210.717 608.668 187.822 612.042 159.889C613.441 148.301 610.849 143.118 607.349 141.042C605.212 139.775 602.71 139.643 600.475 139.955C597.302 140.397 594.679 141.725 594.489 141.823C593.918 142.077 572.418 151.702 552.388 172.679C532.101 193.926 516.885 238.634 516.885 238.634ZM1293.38 382.661C1293.38 382.661 1234.4 402.225 1204.48 435.734C1198.14 442.84 1194.96 449.172 1194.32 454.16C1193.88 457.582 1194.63 460.39 1196.35 462.423C1198.2 464.592 1201.17 465.89 1205.06 466.074C1210.13 466.312 1216.79 464.663 1224.54 460.626C1236.07 454.621 1250.03 443.324 1264.74 425.133L1264.75 425.124C1264.8 425.078 1265.01 424.811 1265.36 424.353C1269.2 419.408 1290.35 391.368 1293.89 383.222C1293.93 383.128 1293.94 383.023 1293.91 382.925C1293.87 382.812 1293.79 382.721 1293.68 382.674C1293.58 382.633 1293.48 382.628 1293.38 382.661ZM1169.1 372.885C1168.92 372.76 1168.79 372.711 1168.71 372.7L1168.57 372.701L1168.44 372.741L1168.34 372.812L1168.26 372.907L1168.19 373.089L1168.2 373.263C1168.22 373.393 1168.36 373.672 1168.61 374.066C1171.39 378.343 1189.87 400.279 1203.89 409.617C1207.55 412.058 1210.93 413.637 1213.64 413.861C1215.56 414.019 1217.17 413.519 1218.36 412.226C1218.4 412.185 1218.43 412.137 1218.45 412.084C1220.73 405.794 1217.17 399.684 1210.99 394.25C1197.26 382.188 1170.62 373.384 1169.1 372.887L1169.1 372.885Z" fill="#441013"/>
<path d="M304.626 109.786C310.529 109.786 315.313 105.001 315.313 99.0989C315.313 93.1966 310.529 88.4119 304.626 88.4119C298.724 88.4119 293.939 93.1966 293.939 99.0989C293.939 105.001 298.724 109.786 304.626 109.786Z" fill="#441013"/>
<path d="M590.98 323.46C596.173 323.46 600.382 319.25 600.382 314.058C600.382 308.865 596.173 304.656 590.98 304.656C585.788 304.656 581.578 308.865 581.578 314.058C581.578 319.25 585.788 323.46 590.98 323.46Z" fill="#441013"/>
<path fill-rule="evenodd" clip-rule="evenodd" d="M557.944 346.066C559.499 345.421 561.901 344.6 564.564 344.319C569.113 343.84 574.434 344.959 577.513 351.371C578.135 352.666 578.252 354.328 577.983 356.288C577.566 359.34 576.211 363.09 574.248 367.312C566.533 383.908 549.449 407.695 541.987 424.976C539.674 430.331 538.285 435.072 538.35 438.795C538.417 442.662 540.018 445.466 543.699 446.813C545.689 447.54 548.178 447.318 551.034 446.272C555.187 444.751 560.147 441.487 565.489 437.027C586.137 419.785 612.562 384.639 620.228 364.186C621.655 360.381 622.433 357.076 622.423 354.479C622.416 352.672 622.026 351.197 621.233 350.108C620.23 348.731 618.579 347.948 616.164 347.933C614.467 347.923 612.378 348.296 609.86 349.106C611.755 347.851 614.632 346.187 617.888 345.124C623.609 343.255 630.521 343.253 635.265 350.78C636.736 353.115 637.145 356.047 636.786 359.415C636.418 362.854 635.248 366.739 633.553 370.911C628.422 383.536 618.49 398.754 611.141 412.183C606.201 421.208 602.433 429.436 602.011 435.545C601.719 439.773 603.002 443.014 606.49 444.889C608.463 445.95 611.01 445.951 613.989 445.015C618.304 443.659 623.562 440.332 629.29 435.588C651.406 417.272 680.636 377.814 689.882 350.531C689.982 350.327 690.846 348.594 692.31 347.098C693.319 346.067 694.616 345.14 696.155 344.955C697.811 344.757 699.723 345.431 701.853 347.672C701.873 347.693 701.895 347.712 701.919 347.729C701.919 347.729 703.051 348.559 703.177 351.184C703.314 354.029 702.285 358.831 697.707 366.691C691.77 376.885 674.073 404.913 670.651 424.632C669.153 433.268 670.405 440.325 676.366 443.742C678.335 444.871 680.924 445.053 683.934 444.399C688.315 443.447 693.617 440.721 699.175 436.699C712.065 427.373 726.357 411.077 733.74 394.05C738.688 382.639 740.531 370.9 736.83 360.693C733.428 351.308 734.376 344.338 737.057 340.426C738.777 337.915 741.209 336.692 743.604 336.982C746.021 337.275 748.367 339.1 749.909 342.59C752.312 348.025 752.752 357.41 748.566 371.397C741.401 395.341 724.408 420.237 705.242 435.689C692.52 445.946 678.846 452.047 666.459 450.877C659.389 450.21 656.209 444.762 655.371 437.773C654.085 427.065 658.264 412.745 662.813 405.764C662.935 405.577 662.888 405.328 662.708 405.198C662.527 405.068 662.276 405.103 662.137 405.278C662.137 405.278 643.1 429.369 623.9 442.89C615.751 448.629 607.584 452.477 600.848 451.67C596.433 451.14 593.422 449.654 591.527 447.452C589.638 445.257 588.865 442.363 588.878 439.05C588.919 428.847 596.365 414.756 602.735 404.374C602.851 404.186 602.8 403.941 602.619 403.815C602.438 403.688 602.19 403.725 602.053 403.898C602.053 403.898 582.379 428.85 563.154 442.891C554.999 448.846 546.941 452.855 540.518 452.05C534.132 451.25 530.341 448.753 528.178 445.623C523.114 438.294 526.908 427.608 526.908 427.608L526.914 427.592C526.914 427.592 531.919 411.277 551.92 379.96C559.986 367.331 563.411 359.357 564.184 354.383C564.671 351.248 564.113 349.251 563.028 348.001C561.823 346.611 559.926 346.127 557.944 346.066Z" fill="#441013"/>
</svg>
